<svg class="AES" width="100%" height="100%" viewBox="0 0 90 90" xmlns="http://www.w3.org/2000/svg" xmlns:xlink="http://www.w3.org/1999/xlink"><style>
	 .AES .st0{fill:url(#AES--SVGID_1_);}
</style><g fill=""><g><linearGradient id="AES--SVGID_1_" gradientUnits="userSpaceOnUse" x1="7.93874" y1="23.54739" x2="82.57571" y2="92.57572" gradientTransform="matrix(1 0 0 -1 0 91.91389)"><stop offset="0" style="stop-color: rgb(237, 142, 39);"></stop><stop offset="1" style="stop-color: rgb(223, 43, 38);"></stop></linearGradient><path class="st0" d="M73.63296,21.10968c0,9.49136-12.72704,18.12-12.72704,18.12L40.41296,20.03112l-16.8256,45.19201 c0,0,21.1864-0.956,39.47568-12.94288C77.98352,42.50136,85,32.11112,85,23.69816c0-6.03984-4.62672-18.76704-25.28064-18.76704 c-22.75776,0-32.78848,9.38352-32.78848,9.38352S38.148,9.24536,53.46368,9.24536 C61.22944,9.24536,73.63296,11.61832,73.63296,21.10968z M45.48224,47.75032c-4.2064,1.61792-7.65776,2.58864-7.65776,2.58864 l5.3928-14.56064l9.27568,8.73648C52.49296,44.51464,49.68864,46.1324,45.48224,47.75032z"></path><linearGradient id="AES--SVGID_00000176741326243687602840000015512250972345089936_" gradientUnits="userSpaceOnUse" x1="15.10707" y1="15.79667" x2="89.74403" y2="84.82499" gradientTransform="matrix(1 0 0 -1 0 91.91389)"><stop offset="0" style="stop-color: rgb(237, 142, 39);"></stop><stop offset="1" style="stop-color: rgb(223, 43, 38);"></stop></linearGradient><path d="M65.68752,63.78504 c-7.11599,5.39632-17.76048,11.57664-32.06944,11.57664c-19.2704,0-22.14656-14.88432-22.14656-20.63663 s1.1504-11.21712,5.968-18.94688s13.2304-14.4168,13.2304-14.4168s-5.68048,3.23568-8.26896,5.4648 C19.81232,29.05512,5,40.63176,5,59.68648s15.44144,25.3824,28.672,25.3824c11.4328,0,24.03408-4.96144,34.0288-14.95616 S80.9312,46.8516,80.9312,46.8516S74.31599,57.24168,65.68752,63.78504z" style="fill: url(&quot;#AES--SVGID_00000176741326243687602840000015512250972345089936_&quot;);"></path></g></g></svg>