<?xml version="1.0" encoding="utf-8"?>
<!-- Generator: Adobe Illustrator 23.0.1, SVG Export Plug-In . SVG Version: 6.00 Build 0)  -->
<svg version="1.1" id="Layer_1" xmlns="http://www.w3.org/2000/svg" xmlns:xlink="http://www.w3.org/1999/xlink" x="0px" y="0px" viewBox="0 0 309.95901 100" style="enable-background:new 0 0 309.95901 100;" xml:space="preserve" class="h0f9d16cruco9a0adcc7" >
<style type="text/css">.h0f9d16cruco9a0adcc7 .st0{fill:#BA1F63;} .h0f9d16cruco9a0adcc7 .st1{clip-path:url(#SVGID_2_);fill:#FBB41C;} .h0f9d16cruco9a0adcc7 .st2{clip-path:url(#SVGID_2_);fill:#358FCD;} .h0f9d16cruco9a0adcc7 .st3{clip-path:url(#SVGID_2_);fill:#EB1F26;} .h0f9d16cruco9a0adcc7 .st4{clip-path:url(#SVGID_2_);fill:#691E5B;} .h0f9d16cruco9a0adcc7 .st5{fill:#8A8A8A;} .h0f9d16cruco9a0adcc7 .st6{fill:#231F20;} .h0f9d16cruco9a0adcc7 .st7{fill:#FFFFFF;} .h0f9d16cruco9a0adcc7 .st8{fill:#FFFFFF;stroke:#FFFFFF;stroke-miterlimit:10;} </style>
<g>
	<path class="st0" d="M10.28761,65.37611C5.75222,64.49115,0,62.72124,0,58.62832s0.88496-5.86283,5.14381-10.84071
		s14.98894-14.60177,42.75443-29.97787S94.91151,0,103.98231,0s16.92477,2.87611,22.67699,8.96018
		c5.75222,6.08407,8.07522,11.61504,8.07522,26.65929s-3.53983,25.66372-7.63274,37.5C123.00885,84.95575,116.03983,100,96.5708,100
		c-15.92921,0-27.76549-8.18584-33.5177-12.27876s-11.42591-9.39491-23.15158-14.37279S10.28761,65.37611,10.28761,65.37611z"/>
	<g>
		<defs>
			<path id="SVGID_1_" d="M10.28761,65.37611C5.75222,64.49115,0,62.72124,0,58.62832s0.88496-5.86283,5.14381-10.84071
				s14.98894-14.60177,42.75443-29.97787S94.91151,0,103.98231,0s16.92477,2.87611,22.67699,8.96018
				c5.75222,6.08407,8.07522,11.61504,8.07522,26.65929s-3.53983,25.66372-7.63274,37.5
				C123.00885,84.95575,116.03983,100,96.5708,100c-15.92921,0-27.76549-8.18584-33.5177-12.27876
				s-11.42591-9.39491-23.15158-14.37279S10.28761,65.37611,10.28761,65.37611z"/>
		</defs>
		<clipPath id="SVGID_2_">
			<use xlink:href="#SVGID_1_"  style="overflow:visible;"/>
		</clipPath>
		<path class="st1" d="M133.84956,56.30531c0,0-0.33186-19.24779-13.16372-35.61947C106.12802,2.11207,84.18142,0,84.18142,0
			s25.11062-6.85841,40.26549,3.31858s12.16814,28.4292,12.05752,34.40265
			C136.39381,43.69469,133.84956,56.30531,133.84956,56.30531z"/>
		<path class="st2" d="M59.84513,8.5177c0,0,8.43662,0.77258,22.45575,6.85841c14.26991,6.19469,24.41592,16.6087,31.47919,29.33903
			c9.51328,17.14602,11.55178,40.57248,11.55178,40.57248l11.48187-34.18142c0,0-2.85356-24.22566-16.79161-35.61947
			S84.95576-1.97628,85.28761-2.26026C85.61948-2.54425,59.84513,8.5177,59.84513,8.5177z"/>
		<path class="st3" d="M37.83807,19.95252c0,0,21.24084,8.0517,41.70354,25.33186
			c21.48145,18.14047,28.44878,30.1333,32.07964,36.50443c5.86284,10.28761,5.64159,20.68584,5.64159,20.68584l12.27876-24.00443
			c0,0-5.53098-34.62389-26.76991-52.32301S63.05931,5.35075,63.05931,5.35075L37.83807,19.95252z"/>
		<path class="st4" d="M80.0885,100.99557c0,0,0.99557-1.76991,1.10619-9.73451c0.09238-6.65126-3.87168-17.14602-12.72124-25.11062
			c-6.9209-6.22881-15.37611-12.38938-28.76106-19.57965c-12.81296-6.883-28.76106-13.16372-28.76106-13.16372l34.18142-15.9292
			c0,0,27.76464,16.32716,41.01583,28.21408c14.14243,12.68639,21.49635,25.008,25.8181,32.62601
			c4.47315,7.88487,9.4935,19.2484,9.4935,18.91654s-14.49115,10.28761-14.60177,9.84513
			C106.74779,106.63717,80.0885,100.99557,80.0885,100.99557z"/>
	</g>
	<g>
		<path class="st5" d="M161.34218,71.65701l-4.41333,0.15426h-1.89847l-3.79758-0.15426
			c-3.04506-0.30788-4.56758-1.94449-4.56758-4.90788l-0.10242-3.26349c0-1.30215,0.01297-2.27051,0.03824-2.90376
			c0.02592-0.6339,0.14973-1.5167,0.37206-2.64709c0.22231-1.13104,0.76094-1.98726,1.6165-2.56996
			c0.85558-0.58205,2.04431-0.87372,3.56683-0.87372c0.68381-0.07972,1.33003-0.12963,1.93735-0.14973
			c0.60669-0.02009,1.32161-0.02982,2.14218-0.02982h0.61639h2.46301c0.99168,0,1.79605,0.02139,2.4118,0.06482
			c0.61575,0.04343,1.42401,0.16917,2.42477,0.37723s1.69754,0.76289,2.09161,1.66448
			c0.39279,0.90224,0.58983,2.10717,0.58983,3.61544h-2.05272v-0.15815c0-0.79076-0.04732-1.44022-0.1413-1.94967
			c-0.09399-0.50881-0.31631-0.87761-0.66696-1.10641c-0.35066-0.2288-0.99687-0.40445-1.93736-0.52695
			c-0.94048-0.12315-2.24069-0.18473-3.89998-0.18473c-0.61575,0-1.54846,0.02982-2.79681,0.0901
			c-1.24901,0.05963-2.19014,0.08945-2.82274,0.08945c-1.47133,0.12056-2.4118,0.38306-2.8221,0.78751
			c-0.41093,0.4038-0.6676,1.10511-0.77002,2.10263c-0.1024,0.99752-0.16267,1.90559-0.17953,2.72227
			c-0.0175,0.81733-0.02592,1.59577-0.02592,2.33532c0,2.18495,0.21843,3.68998,0.65465,4.51574
			c0.4362,0.82576,1.59447,1.23863,3.47673,1.23863h4.00304h3.82286c1.57373,0,2.66847-0.18537,3.28423-0.55742
			c0.61575-0.37139,0.92429-1.26585,0.92429-2.68468v-0.68382h2.15514c0,2.17134-0.34224,3.64655-1.02669,4.42564
			C165.32771,71.2681,163.77148,71.65701,161.34218,71.65701z"/>
		<path class="st5" d="M191.23535,66.28504c0,2.42153-0.48352,3.9311-1.44994,4.52805
			c-0.9664,0.59695-2.79292,0.89511-5.47826,0.89511l-3.43849,0.07713l-4.90074-0.07713c-1.69365,0-2.92969-0.37205-3.70749-1.11613
			c-0.77844-0.74409-1.16733-1.96263-1.16733-3.65627V54.51703h2.078v12.12709c0,1.36114,0.30788,2.23356,0.92363,2.61662
			s1.66837,0.57427,3.15654,0.57427l3.66924,0.12833l3.97713-0.12833c1.60744,0,2.71968-0.19575,3.33543-0.58788
			s0.92363-1.31252,0.92363-2.76181v-0.38371V54.51703h2.07864V66.28504z"/>
		<path class="st5" d="M215.71381,59.57139c0,1.54003-0.22751,2.59653-0.67993,3.16886
			c-0.4537,0.57362-1.4415,0.97159-2.96404,1.19326c1.14595,0.15426,1.98856,0.43232,2.52783,0.83418
			c0.53862,0.40186,0.80826,1.13363,0.80826,2.19402v4.64407h-2.05273v-3.79758c0-1.26585-0.26964-2.10393-0.80826-2.51486
			c-0.53926-0.41029-1.47586-0.61575-2.80977-0.61575h-11.67532v6.92819h-2.078V54.49111h13.93286
			c2.06958,0,3.55386,0.34612,4.45157,1.039C215.26463,56.22299,215.71381,57.57052,215.71381,59.57139z M213.55801,59.44306
			c0-1.33392-0.3163-2.20181-0.94955-2.60431c-0.6326-0.40186-1.67615-0.60279-3.12996-0.60279h-11.41866v6.72272h11.46985
			c1.50504,0,2.55312-0.23528,3.14294-0.70585C213.26311,61.78292,213.55801,60.84632,213.55801,59.44306z"/>
		<path class="st5" d="M219.48544,71.6058h-2.43254l10.11455-17.11469h2.74756l10.19621,17.11469h-2.38199l-2.26532-3.84878
			h-13.74425L219.48544,71.6058z M222.71654,66.03745h11.7356l-5.90863-10.03223L222.71654,66.03745z"/>
		<path class="st5" d="M256.38266,71.65701l-4.41333,0.15426h-1.89847l-3.79756-0.15426
			c-3.04506-0.30788-4.5676-1.94449-4.5676-4.90788l-0.1024-3.26349c0-1.30215,0.01295-2.27051,0.03824-2.90376
			c0.02592-0.6339,0.14972-1.5167,0.37204-2.64709c0.22232-1.13104,0.76094-1.98726,1.61652-2.56996
			c0.85558-0.58205,2.0443-0.87372,3.56683-0.87372c0.68381-0.07972,1.33002-0.12963,1.93735-0.14973
			c0.60667-0.02009,1.32159-0.02982,2.14217-0.02982h0.61641h2.46301c0.99168,0,1.79605,0.02139,2.4118,0.06482
			c0.61575,0.04343,1.42401,0.16917,2.42477,0.37723s1.69754,0.76289,2.09161,1.66448
			c0.39279,0.90224,0.58981,2.10717,0.58981,3.61544h-2.0527v-0.15815c0-0.79076-0.04733-1.44022-0.14133-1.94967
			c-0.09396-0.50881-0.31628-0.87761-0.66693-1.10641c-0.35068-0.2288-0.99689-0.40445-1.93738-0.52695
			c-0.94046-0.12315-2.24068-0.18473-3.89996-0.18473c-0.61575,0-1.54846,0.02982-2.79683,0.0901
			c-1.24899,0.05963-2.19012,0.08945-2.82274,0.08945c-1.47131,0.12056-2.4118,0.38306-2.82208,0.78751
			c-0.41093,0.4038-0.66762,1.10511-0.77002,2.10263c-0.10242,0.99752-0.16269,1.90559-0.17953,2.72227
			c-0.0175,0.81733-0.02594,1.59577-0.02594,2.33532c0,2.18495,0.21843,3.68998,0.65465,4.51574s1.59448,1.23863,3.47673,1.23863
			h4.00305h3.82285c1.57373,0,2.66849-0.18537,3.28424-0.55742c0.61575-0.37139,0.92429-1.26585,0.92429-2.68468v-0.68382h2.15512
			c0,2.17134-0.34222,3.64655-1.02667,4.42564C260.36819,71.2681,258.81198,71.65701,256.38266,71.65701z"/>
		<path class="st5" d="M265.85098,71.6058h-2.43253l10.11453-17.11469h2.74756l10.19623,17.11469h-2.38199l-2.26532-3.84878
			h-13.74426L265.85098,71.6058z M269.08209,66.03745h11.7356l-5.90863-10.03223L269.08209,66.03745z"/>
		<path class="st5" d="M294.0499,54.31157h7.56985c3.55777,0,5.83734,0.47446,6.8381,1.42401s1.50113,3.16043,1.50113,6.63263
			v0.6164v0.53862c0,1.23151-0.07324,2.52718-0.21841,3.88702c-0.1452,1.3605-0.63327,2.40792-1.46225,3.14359
			c-0.83029,0.73566-2.07477,1.10317-3.7334,1.10317c-0.51337,0.0512-1.168,0.08556-1.96329,0.10306
			c-0.79529,0.01685-1.55234,0.02528-2.27051,0.02528h-3.82352h-0.46213c-1.04355,0-2.04819-0.05186-3.01459-0.15427
			c-0.96643-0.10241-1.77921-0.29167-2.43774-0.56584c-0.65854-0.27482-1.19781-0.75057-1.61652-1.42855
			c-0.41937-0.67732-0.689-1.55688-0.80826-2.63801c-0.1199-1.08049-0.17953-2.35866-0.17953-3.83452
			c0-1.38966,0.01685-2.38847,0.05121-2.99775c0.03433-0.60927,0.17499-1.47975,0.42325-2.61209
			c0.24823-1.13234,0.85104-1.95615,1.80902-2.47079S292.47617,54.31157,294.0499,54.31157z M294.49905,69.88687l4.4263,0.10241
			h1.59512h0.54056c1.2179,0,2.44421-0.05963,3.67963-0.18018c1.23538-0.11991,2.05466-0.52695,2.45782-1.22049
			c0.40314-0.69418,0.60474-1.73513,0.60474-3.12349v-3.52211c0-1.07983-0.04279-2.01772-0.12836-2.81496
			c-0.08554-0.79659-0.2735-1.40521-0.56454-1.82522c-0.29102-0.42001-0.67148-0.69418-1.14142-0.82252
			c-0.47119-0.12833-0.94955-0.21389-1.43695-0.25667c-0.48743-0.04278-1.00531-0.06482-1.55234-0.06482l-4.02899-0.0512
			l-3.97711,0.0512c-1.94968,0-3.23303,0.25343-3.84879,0.75964c-0.61575,0.50686-0.92361,1.70467-0.92361,3.59341l-0.07715,2.57579
			v1.26132c0,2.16357,0.23141,3.62776,0.69485,4.39194C291.28223,69.5051,292.50854,69.88687,294.49905,69.88687z"/>
	</g>
	<g>
		<path class="st6" d="M157.03191,40.54463h11.13605l0.02528,1.52318c0,2.64968-0.3889,4.49953-1.16734,5.54955
			c-0.77844,1.04937-2.50191,1.57438-5.17038,1.57438h-4.20786h-2.97636c-3.25052,0-5.39723-0.48353-6.44077-1.44994
			c-1.04355-0.96641-1.56531-3.05737-1.56531-6.27355V40.5187c0-3.33544,0.39343-5.62798,1.1803-6.87634
			c0.78687-1.249,2.6944-1.87318,5.72195-1.87318l4.31093-0.05185l2.07864-0.02528l3.41257,0.12834
			c1.6418,0,2.80978,0.41029,3.50267,1.23151c0.69223,0.82122,1.039,2.0955,1.039,3.8235h-2.05273
			c0-1.50503-0.31694-2.4332-0.94955-2.7845c-0.63326-0.35001-1.81355-0.52566-3.54089-0.52566l-3.4897-0.02593l-2.02681-0.02528
			l-3.36136,0.12833c-1.3002,0.11991-2.21994,0.36751-2.75858,0.74409c-0.53862,0.37593-0.80826,1.31706-0.80826,2.82209
			l-0.1024,4.41333c0,1.84791,0.13222,3.25506,0.39732,4.22147c0.26509,0.96641,1.64633,1.44929,4.14433,1.44929l4.36214,0.0512
			l1.84726,0.02592h0.38499c0.78622,0,1.82133-0.05963,3.10469-0.17954c1.28271-0.11926,2.09486-0.5302,2.43774-1.23151
			c0.34158-0.70131,0.5127-1.93282,0.5127-3.69517h-8.98027V40.54463z"/>
		<path class="st6" d="M172.29869,48.98627h-2.43256l10.11455-17.11469h2.74756l10.19623,17.11469h-2.382l-2.26532-3.84878H174.5329
			L172.29869,48.98627z M175.52977,43.41793h11.7356l-5.90863-10.03224L175.52977,43.41793z"/>
		<path class="st6" d="M208.09273,48.98627l-10.67392-15.36984v15.36984h-2.07864V31.87159h3.38145l10.22214,14.67372
			l10.26233-14.67372h3.33286v17.11469h-2.078V33.61644l-10.69984,15.36984H208.09273z"/>
		<path class="st6" d="M229.90269,48.98627h-2.078V31.87159h2.078V48.98627z"/>
		<path class="st6" d="M235.18909,48.98627V31.87159h3.45082L254.433,47.34384V31.87159h2.07866v17.11469h-3.40869
			l-15.83586-15.54938v15.54938H235.18909z"/>
		<path class="st6" d="M271.75314,40.54463h11.13605l0.0253,1.52318c0,2.64968-0.38892,4.49953-1.16736,5.54955
			c-0.77844,1.04937-2.50189,1.57438-5.17038,1.57438h-4.20786h-2.97635c-3.25052,0-5.39725-0.48353-6.44077-1.44994
			c-1.04355-0.96641-1.56531-3.05737-1.56531-6.27355V40.5187c0-3.33544,0.39343-5.62798,1.1803-6.87634
			c0.78687-1.249,2.6944-1.87318,5.72195-1.87318l4.31091-0.05185l2.07867-0.02528l3.41257,0.12834
			c1.64178,0,2.80975,0.41029,3.50266,1.23151c0.69223,0.82122,1.039,2.0955,1.039,3.8235h-2.05273
			c0-1.50503-0.31696-2.4332-0.94955-2.7845c-0.63324-0.35001-1.81357-0.52566-3.54089-0.52566l-3.48972-0.02593l-2.02679-0.02528
			l-3.36136,0.12833c-1.3002,0.11991-2.21994,0.36751-2.75858,0.74409c-0.53864,0.37593-0.80826,1.31706-0.80826,2.82209
			l-0.10242,4.41333c0,1.84791,0.13223,3.25506,0.39734,4.22147c0.26511,0.96641,1.64633,1.44929,4.14435,1.44929l4.36212,0.0512
			l1.84726,0.02592h0.38501c0.78619,0,1.82132-0.05963,3.10468-0.17954c1.28271-0.11926,2.09485-0.5302,2.43774-1.23151
			c0.34158-0.70131,0.5127-1.93282,0.5127-3.69517h-8.98029V40.54463z"/>
	</g>
	<g>
		<path class="st7" d="M119.16051,39.1796v-2.32236h-1.3028v-0.26315h2.92709v0.26315h-1.31059v2.32236H119.16051z"/>
		<path class="st7" d="M123.13049,39.1796l-1.61263-2.32236v2.32236h-0.31436v-2.58551h0.51075l1.54457,2.21671l1.5504-2.21671
			h0.50362v2.58551h-0.31371v-2.32236l-1.61651,2.32236H123.13049z"/>
	</g>
	<g>
		<path class="st8" d="M60.94334,52.70607H77.8046l0.03889,2.84348c0,4.94741-0.58982,8.40081-1.76818,10.36021
			c-1.17836,1.96004-3.78785,2.93941-7.82784,2.93941h-6.37142h-4.50666c-4.92084,0-8.17201-0.90159-9.75093-2.70607
			c-1.58022-1.80383-2.37032-5.70835-2.37032-11.71227v-1.77272c0-6.22688,0.59566-10.50604,1.78698-12.83747
			c1.19132-2.33079,4.07952-3.49683,8.66397-3.49683l6.52633-0.09593l3.14682-0.04796l5.16714,0.23917
			c2.48634,0,4.25388,0.76678,5.30325,2.29967c1.04872,1.5329,1.57309,3.9123,1.57309,7.13755h-3.10793
			c0-2.80978-0.47964-4.54296-1.43697-5.19761c-0.95863-0.65399-2.74561-0.98196-5.36159-0.98196l-5.28381-0.04796l-3.06904-0.04796
			L54.067,39.82063c-1.96846,0.22361-3.36007,0.68705-4.1761,1.38901c-0.81603,0.70261-1.22373,2.45977-1.22373,5.26955
			l-0.15556,8.23877c0,3.44886,0.20028,6.07651,0.60214,7.88034c0.40121,1.80448,2.49283,2.70607,6.2742,2.70607l6.60476,0.09593
			l2.79681,0.04796h0.5827c1.19131,0,2.75857-0.11148,4.70111-0.3351c1.94254-0.22297,3.1721-0.98974,3.69063-2.29967
			c0.51788-1.30929,0.77715-3.60831,0.77715-6.89773H60.94334V52.70607z"/>
		<path class="st8" d="M106.35868,68.56203l-6.68189,0.28713h-2.87524l-5.74983-0.28713
			c-4.61037-0.57557-6.91523-3.63035-6.91523-9.16305l-0.15491-6.09271c0-2.43061,0.0188-4.23768,0.05769-5.42122
			c0.03889-1.1829,0.22686-2.83052,0.5639-4.94093c0.33575-2.11106,1.15178-3.70942,2.44746-4.79704
			c1.29437-1.08761,3.09432-1.63207,5.39983-1.63207c1.03576-0.14907,2.01384-0.24176,2.93293-0.27871
			c0.91909-0.03759,2.00087-0.05639,3.24404-0.05639h0.93271h3.72952c1.50179,0,2.71969,0.04018,3.65174,0.1212
			c0.9327,0.08102,2.15643,0.31565,3.67118,0.70455c1.5154,0.38825,2.57061,1.42401,3.16627,3.10728s0.89381,3.93369,0.89381,6.7493
			h-3.10793v-0.29491c0-1.47586-0.07195-2.68922-0.21389-3.64007c-0.14259-0.95021-0.47964-1.6392-1.00983-2.06569
			c-0.53149-0.42649-1.50892-0.75446-2.93358-0.98456c-1.42466-0.2288-3.39312-0.34417-5.90475-0.34417
			c-0.9327,0-2.3444,0.05639-4.23508,0.16787c-1.89069,0.11213-3.31534,0.16787-4.27332,0.16787
			c-2.22773,0.22491-3.65174,0.71557-4.27332,1.47003c-0.62159,0.75446-1.00983,2.0631-1.1654,3.92526
			c-0.15556,1.86216-0.2463,3.55711-0.27222,5.08223c-0.02592,1.52577-0.03889,2.97895-0.03889,4.35953
			c0,4.07888,0.33056,6.88865,0.99104,8.43063c0.66048,1.54198,2.4144,2.31199,5.26372,2.31199h6.06095h5.78873
			c2.38264,0,4.03999-0.34676,4.97269-1.0403c0.93206-0.69288,1.39874-2.36384,1.39874-5.01158v-1.27752h3.26284
			c0,4.05424-0.51788,6.80763-1.55364,8.26211C112.39306,67.83544,110.03635,68.56203,106.35868,68.56203z"/>
	</g>
</g>
</svg>
