<svg width="30" height="36" viewBox="0 0 30 36" fill="none" xmlns="http://www.w3.org/2000/svg">
<g clip-path="url(#clip0_331_131)">
<path d="M2.19 11.4701H2.1C1.54386 11.4727 1.01124 11.6948 0.617981 12.0881C0.224723 12.4813 0.00262957 13.0139 0 13.5701L0 22.7001C0.00262957 23.2562 0.224723 23.7888 0.617981 24.1821C1.01124 24.5754 1.54386 24.7974 2.1 24.8001H2.19C2.74522 24.7974 3.2768 24.575 3.66846 24.1815C4.06013 23.7879 4.28001 23.2553 4.28 22.7001V13.5701C4.28001 13.0148 4.06013 12.4822 3.66846 12.0887C3.2768 11.6951 2.74522 11.4727 2.19 11.4701ZM5.29 26.2201C5.29 26.4731 5.33999 26.7235 5.4371 26.9571C5.53422 27.1907 5.67654 27.4028 5.85589 27.5813C6.03524 27.7597 6.24808 27.9009 6.48218 27.9968C6.71628 28.0927 6.96702 28.1414 7.22 28.1401H9.28V33.0801C9.28 33.3545 9.33406 33.6263 9.43909 33.8799C9.54412 34.1334 9.69807 34.3639 9.89215 34.5579C10.0862 34.752 10.3166 34.906 10.5702 35.011C10.8238 35.116 11.0955 35.1701 11.37 35.1701H11.46C12.0152 35.1701 12.5479 34.9502 12.9414 34.5585C13.3349 34.1669 13.5574 33.6353 13.56 33.0801V28.1401H16.44V33.0801C16.4426 33.6353 16.6651 34.1669 17.0586 34.5585C17.4521 34.9502 17.9848 35.1701 18.54 35.1701H18.63C18.9045 35.1701 19.1762 35.116 19.4298 35.011C19.6834 34.906 19.9138 34.752 20.1079 34.5579C20.3019 34.3639 20.4559 34.1334 20.5609 33.8799C20.6659 33.6263 20.72 33.3545 20.72 33.0801V28.1401H22.79C23.2984 28.1374 23.7852 27.9343 24.1447 27.5748C24.5042 27.2153 24.7074 26.7285 24.71 26.2201V11.8101H5.29V26.2201ZM19.84 3.07007L21.47 0.540074C21.5195 0.462913 21.5368 0.369398 21.5181 0.279638C21.4994 0.189877 21.4462 0.111039 21.37 0.060074C21.3322 0.0342236 21.2896 0.0162732 21.2447 0.00729971C21.1998 -0.0016738 21.1535 -0.00148554 21.1087 0.0078532C21.0639 0.0171919 21.0214 0.0354887 20.9838 0.061646C20.9462 0.0878033 20.9143 0.121282 20.89 0.160074L19.19 2.77007C16.5011 1.68986 13.4989 1.68986 10.81 2.77007L9.11 0.160074C9.08671 0.120145 9.05529 0.0855545 9.01778 0.058543C8.98027 0.0315316 8.9375 0.012702 8.89225 0.00327435C8.847 -0.00615333 8.80027 -0.00596884 8.75509 0.00381588C8.70991 0.0136006 8.6673 0.0327673 8.63 0.060074C8.55378 0.111039 8.50061 0.189877 8.48191 0.279638C8.46321 0.369398 8.48047 0.462913 8.53 0.540074L10.16 3.07007C8.73493 3.69846 7.5157 4.71558 6.642 6.00491C5.7683 7.29423 5.27548 8.8036 5.22 10.3601V10.9401H24.72V10.3601C24.6669 8.80301 24.175 7.29262 23.301 6.00288C22.427 4.71313 21.2065 3.6965 19.78 3.07007H19.84ZM10.48 7.58007C10.2965 7.5781 10.1177 7.52188 9.96607 7.4185C9.81446 7.31512 9.69681 7.16919 9.62795 6.99909C9.5591 6.829 9.5421 6.64233 9.57911 6.46259C9.61611 6.28285 9.70546 6.11808 9.83592 5.98901C9.96637 5.85995 10.1321 5.77236 10.3122 5.73728C10.4923 5.7022 10.6788 5.72119 10.8482 5.79186C11.0175 5.86254 11.1622 5.98173 11.2639 6.13445C11.3657 6.28716 11.42 6.46657 11.42 6.65007C11.42 6.77305 11.3956 6.89481 11.3483 7.00829C11.3009 7.12178 11.2315 7.22475 11.1441 7.31124C11.0567 7.39773 10.953 7.46603 10.839 7.51217C10.725 7.55832 10.603 7.5814 10.48 7.58007ZM19.48 7.58007C19.2965 7.5781 19.1177 7.52188 18.9661 7.4185C18.8145 7.31512 18.6968 7.16919 18.628 6.99909C18.5591 6.829 18.5421 6.64233 18.5791 6.46259C18.6161 6.28285 18.7055 6.11808 18.8359 5.98901C18.9664 5.85995 19.1321 5.77236 19.3122 5.73728C19.4923 5.7022 19.6788 5.72119 19.8482 5.79186C20.0175 5.86254 20.1622 5.98173 20.2639 6.13445C20.3657 6.28716 20.42 6.46657 20.42 6.65007C20.42 6.77305 20.3956 6.89481 20.3483 7.00829C20.3009 7.12178 20.2315 7.22475 20.1441 7.31124C20.0567 7.39773 19.953 7.46603 19.839 7.51217C19.725 7.55832 19.603 7.5814 19.48 7.58007ZM27.9 11.4701H27.81C27.2548 11.4727 26.7232 11.6951 26.3315 12.0887C25.9399 12.4822 25.72 13.0148 25.72 13.5701V22.7001C25.72 23.2553 25.9399 23.7879 26.3315 24.1815C26.7232 24.575 27.2548 24.7974 27.81 24.8001H27.9C28.4561 24.7974 28.9888 24.5754 29.382 24.1821C29.7753 23.7888 29.9974 23.2562 30 22.7001V13.5701C29.9974 13.0139 29.7753 12.4813 29.382 12.0881C28.9888 11.6948 28.4561 11.4727 27.9 11.4701Z" fill="#63D61C"/>
</g>
<defs>
<clipPath id="clip0_331_131">
<rect width="30" height="35.17" fill="white"/>
</clipPath>
</defs>
</svg>
