<svg width="100%" height="100%" class="beta-malaysia" xmlns="http://www.w3.org/2000/svg" viewBox="0 0 34.01575 34.01575" xmlns:xlink="http://www.w3.org/1999/xlink"><style>
	 .beta-malaysia .st0{clip-path:url(#beta-malaysia-SVGID_2_);}
	 .beta-malaysia .st1{fill:#C02B2B;}
	 .beta-malaysia .st2{fill:#FFFFFF;}
	 .beta-malaysia .st3{fill:#384194;}
	 .beta-malaysia .st4{fill:#EACD40;}
	 .beta-malaysia .st5{fill:none;}
</style><g fill=""><g><g><defs><circle id="beta-malaysia-SVGID_1_" cx="17.00787" cy="17.00787" r="17.00787"></circle></defs><g class="st0"><rect x="-19.67261" y="-0.85039" class="st1" width="66.25038" height="2.76043"></rect><rect x="-19.67261" y="1.91004" class="st2" width="66.25038" height="2.76063"></rect><rect x="-19.67261" y="4.67067" class="st1" width="66.25038" height="2.76043"></rect><rect x="-19.67261" y="7.4311" class="st2" width="66.25038" height="2.76043"></rect><rect x="-19.67261" y="10.19153" class="st1" width="66.25038" height="2.76063"></rect><rect x="-19.67261" y="12.95216" class="st2" width="66.25038" height="2.76043"></rect><rect x="-19.67261" y="15.7126" class="st1" width="66.25038" height="2.76063"></rect><rect x="-19.67261" y="18.47323" class="st2" width="66.25038" height="2.76043"></rect><rect x="-19.67261" y="21.23366" class="st1" width="66.25038" height="2.76043"></rect><rect x="-19.67261" y="23.99409" class="st2" width="66.25038" height="2.76063"></rect><rect x="-19.67261" y="26.75472" class="st1" width="66.25038" height="2.76043"></rect><rect x="-19.67261" y="29.51516" class="st2" width="66.25038" height="2.76043"></rect><rect x="-19.67261" y="32.27559" class="st1" width="66.25038" height="2.76063"></rect><rect x="-19.67261" y="35.03622" class="st2" width="66.25038" height="2.76043"></rect><rect x="-19.67261" y="-0.85039" class="st3" width="38.64527" height="22.08405"></rect><path class="st4" d="M3.90382,12.06905c0-2.64333,2.14551-4.78754,4.78637-4.78754c0.91805,0,1.77378,0.25973,2.5046,0.70787 c-0.97021-0.86577-2.24602-1.39044-3.64287-1.39044c-3.02028,0-5.47142,2.44984-5.47142,5.47011 c0,3.02549,2.45114,5.47024,5.47142,5.47024c1.39685,0,2.67267-0.52976,3.64287-1.39057 c-0.73082,0.44827-1.58655,0.708-2.5046,0.708C6.04933,16.85672,3.90382,14.71251,3.90382,12.06905"></path><polygon class="st4" points="14.84535,12.06905 17.46456,11.05556 14.66581,11.27969 16.58601,9.22715 14.15902,10.64301 14.99686,7.96396 13.42557,10.29162 13.02205,7.5106 12.73035,9.50213 12.64768,10.07766 12.61587,10.29162 11.04328,7.96396 11.88492,10.64301 9.45803,9.22715 11.37811,11.27969 8.57818,11.05556 11.19987,12.06905 8.57818,13.08268 11.37811,12.85855 9.45803,14.91618 11.88492,13.49522 11.04328,16.17428 12.61587,13.84662 12.64768,14.06567 12.73035,14.63611 13.02205,16.63259 13.42557,13.84662 14.99686,16.17428 14.15902,13.49522 16.58601,14.91618 14.66581,12.85855 17.46456,13.08268 			"></polygon><rect x="-19.67261" y="-0.85039" class="st5" width="66.25038" height="38.64705"></rect><rect x="-19.67261" y="-0.85039" class="st5" width="66.25038" height="38.64705"></rect></g></g></g></g></svg>