<svg width="100%" height="100%" class="create-account" xmlns="http://www.w3.org/2000/svg" viewBox="0 0 73.063 73.063" xmlns:xlink="http://www.w3.org/1999/xlink"><style>
                .create-account .st0{fill:#004A98;}
                .create-account .st1{fill:#FF0000;}
                .create-account .st2{fill:#E2E2E2;}
                .create-account .st3{fill:#FFFFFF;}
            </style><g xmlns="http://www.w3.org/2000/svg"><g><path class="st0" d="M20.96675,58.79098c-2.30273,0-4.86816-2.04395-4.86816-4.97559V19.50778    c0-2.88672,2.18359-5.23633,4.86816-5.23633h31.63086c2.68457,0,4.86914,2.34961,4.86914,5.2373v34.0459    c0,2.88672-2.18457,5.23633-4.86914,5.23633H20.96675z M20.96675,16.04977c-1.79199,0-3.24902,1.55176-3.24902,3.45898v34.0459    c0,1.90723,1.45703,3.45898,3.24902,3.45898h31.63086c1.79102,0,3.24805-1.55176,3.24805-3.45898v-34.0459    c0-1.90723-1.45703-3.45898-3.24805-3.45898H20.96675z"></path><path class="st0" d="M17.14155,49.83883v-1.57715h9.87793v-6.26465c0-2.90723,1.73145-5.5293,4.41113-6.67871l0.91699-0.39355    l-0.70508-0.70703c-0.15918-0.15723-0.27832-0.28906-0.39648-0.42188l-0.13574-0.14844    c-0.1123-0.13379-0.21484-0.27246-0.31641-0.41016l-0.12695-0.16992c-0.09668-0.14063-0.18164-0.28418-0.2666-0.42676    c-0.00586-0.00977-0.10156-0.16309-0.125-0.20313c-0.06836-0.125-0.12988-0.25879-0.19336-0.3916l-0.13086-0.26953    c-0.04004-0.09473-0.07422-0.19141-0.10938-0.28711l-0.14941-0.41113c-0.0293-0.0918-0.05273-0.1875-0.07617-0.2832    c0,0-0.10156-0.38281-0.1123-0.4375c-0.01758-0.08398-0.02832-0.16406-0.04004-0.24414c0,0-0.06934-0.43555-0.07715-0.50879    l-0.02344-0.43555c-0.00977-0.1377-0.0166-0.23535-0.0166-0.33398c0-4.125,3.35547-7.48047,7.47949-7.48047    s7.47949,3.35547,7.47949,7.48047c0,0.09863-0.00684,0.19629-0.01367,0.29297l-0.02637,0.47266    c-0.00782,0.08105-0.02148,0.1543-0.03516,0.23047l-0.04199,0.27734c-0.01172,0.08789-0.02246,0.16602-0.03906,0.24219    c-0.01367,0.06641-0.1123,0.4375-0.1123,0.4375c-0.02441,0.10254-0.04785,0.19824-0.07715,0.29102    c-0.01563,0.04883-0.12988,0.35352-0.12988,0.35352c-0.04688,0.13184-0.08398,0.23828-0.12891,0.3418l-0.11328,0.23242    c-0.08301,0.17578-0.14453,0.30762-0.21387,0.43457c-0.02246,0.04004-0.11622,0.18848-0.11622,0.18945    c-0.09081,0.15234-0.17675,0.29688-0.27148,0.43457c-0.02637,0.03809-0.12109,0.16113-0.12207,0.16113    c-0.1084,0.14941-0.20996,0.28711-0.32031,0.41797l-0.13379,0.14648c-0.12109,0.13672-0.23926,0.2666-0.36426,0.38867    l-0.67773,0.66016l0.8125,0.45801c2.7207,1.16992,4.45214,3.79199,4.45214,6.69922v6.26465h9.79005v1.57715H17.14155z     M34.28022,36.31441c-3.12988,0-5.67969,2.54688-5.6836,5.67676l0.00098,6.27051h16.45703v-6.26465    c-0.00293-3.13379-2.55176-5.68262-5.68262-5.68262H34.28022z M36.82612,22.93356c-3.25391,0-5.90137,2.64746-5.90137,5.90137    s2.64746,5.90039,5.90137,5.90039s5.90137-2.64648,5.90137-5.90039S40.08003,22.93356,36.82612,22.93356z"></path></g><g><path class="st1" d="M36.00869,0.52268c0-0.28803,0.23438-0.522,0.52278-0.522c0.28845,0,0.52282,0.23396,0.52282,0.522v5.72567    c0,0.28845-0.23438,0.52282-0.52282,0.52282c-0.28841,0-0.52278-0.23438-0.52278-0.52282V0.52268z"></path><path class="st1" d="M36.00869,66.8138c0-0.28803,0.23438-0.522,0.52278-0.522c0.28845,0,0.52282,0.23396,0.52282,0.522v5.72568    c0,0.28844-0.23438,0.52282-0.52282,0.52282c-0.28841,0-0.52278-0.23438-0.52278-0.52282V66.8138z"></path><g><path class="st1" d="M72.54031,36.00869c0.28803,0,0.522,0.23438,0.522,0.52278c0,0.28845-0.23396,0.52282-0.522,0.52282     h-5.72567c-0.28845,0-0.52283-0.23438-0.52283-0.52282c0-0.28841,0.23438-0.52278,0.52283-0.52278H72.54031z"></path><path class="st1" d="M6.24919,36.00869c0.28803,0,0.522,0.23438,0.522,0.52278c0,0.28845-0.23396,0.52282-0.522,0.52282H0.52351     c-0.28845,0-0.52282-0.23438-0.52282-0.52282c0-0.28841,0.23438-0.52278,0.52282-0.52278H6.24919z"></path></g><g><path class="st2" d="M69.47351,21.98049c0.26514-0.11254,0.57207,0.01178,0.68476,0.27726     c0.11271,0.26552-0.01108,0.57268-0.27621,0.68522l-5.27052,2.2372c-0.26551,0.11271-0.57284-0.01146-0.68554-0.27698     c-0.11269-0.26548,0.01148-0.5728,0.27699-0.6855L69.47351,21.98049z"></path><path class="st2" d="M8.45221,47.8825c0.26514-0.11254,0.57208,0.01178,0.68477,0.27726     c0.11271,0.26551-0.01108,0.57267-0.27622,0.68522l-5.27051,2.2372c-0.26552,0.11271-0.57284-0.01146-0.68554-0.27697     c-0.11269-0.26548,0.01148-0.5728,0.27699-0.6855L8.45221,47.8825z"></path></g><g><path class="st2" d="M70.11413,49.5359c0.26706,0.1079,0.39619,0.41285,0.28815,0.68026     c-0.10806,0.26744-0.41278,0.39711-0.67984,0.28921l-5.30875-2.14487c-0.26744-0.10806-0.39696-0.41316-0.2889-0.68061     c0.10804-0.2674,0.41315-0.39692,0.68059-0.28886L70.11413,49.5359z"></path><path class="st2" d="M8.65007,24.70281c0.26706,0.1079,0.39619,0.41285,0.28815,0.68026     c-0.10805,0.26744-0.41278,0.39711-0.67984,0.28921L2.94963,23.5274c-0.26744-0.10805-0.39695-0.41316-0.2889-0.6806     c0.10804-0.2674,0.41315-0.39692,0.68059-0.28886L8.65007,24.70281z"></path></g><g><path class="st1" d="M61.62389,10.69974c0.20367-0.20367,0.53484-0.20338,0.73877,0.00056     c0.20396,0.20396,0.20425,0.53513,0.00058,0.7388l-4.04866,4.04866c-0.20396,0.20396-0.53542,0.20396-0.73938,0     c-0.20393-0.20393-0.20393-0.53539,0.00003-0.73935L61.62389,10.69974z"></path><path class="st1" d="M14.74899,57.57465c0.20367-0.20367,0.53484-0.20338,0.73877,0.00056     c0.20396,0.20396,0.20425,0.53513,0.00058,0.7388l-4.04866,4.04866c-0.20396,0.20396-0.53542,0.20396-0.73938,0     c-0.20393-0.20393-0.20393-0.53539,0.00003-0.73935L14.74899,57.57465z"></path></g><g><path class="st2" d="M49.53595,2.94889c0.1079-0.26706,0.41285-0.39619,0.68026-0.28815     c0.26744,0.10805,0.39711,0.41278,0.28921,0.67984l-2.14487,5.30875c-0.10806,0.26744-0.41316,0.39695-0.6806,0.2889     c-0.26741-0.10804-0.39692-0.41315-0.28886-0.68059L49.53595,2.94889z"></path><path class="st2" d="M24.70285,64.41295c0.1079-0.26706,0.41285-0.39619,0.68026-0.28815     c0.26744,0.10806,0.39711,0.41277,0.28921,0.67984l-2.14488,5.30875c-0.10805,0.26745-0.41316,0.39696-0.6806,0.2889     c-0.2674-0.10804-0.39692-0.41315-0.28886-0.68059L24.70285,64.41295z"></path></g><g><path class="st2" d="M51.08255,69.47353c0.11254,0.26514-0.01179,0.57208-0.27726,0.68477     c-0.26552,0.1127-0.57268-0.01108-0.68522-0.27621l-2.2372-5.27052c-0.11271-0.26552,0.01146-0.57284,0.27698-0.68554     c0.26548-0.11269,0.5728,0.01148,0.6855,0.277L51.08255,69.47353z"></path><path class="st2" d="M25.18054,8.45224c0.11255,0.26514-0.01178,0.57208-0.27726,0.68477     c-0.26552,0.11271-0.57268-0.01108-0.68522-0.27622l-2.2372-5.27051c-0.11271-0.26552,0.01146-0.57284,0.27698-0.68554     c0.26548-0.11269,0.5728,0.01148,0.6855,0.27699L25.18054,8.45224z"></path></g><g><path class="st2" d="M62.36325,61.62389c0.20367,0.20367,0.20338,0.53484-0.00055,0.73877     c-0.20396,0.20396-0.53513,0.20425-0.7388,0.00058l-4.04866-4.04866c-0.20396-0.20396-0.20396-0.53542,0-0.73938     c0.20393-0.20393,0.53539-0.20393,0.73935,0.00003L62.36325,61.62389z"></path><path class="st1" d="M15.48835,14.74899c0.20367,0.20367,0.20338,0.53484-0.00056,0.73877     c-0.20396,0.20396-0.53513,0.20425-0.7388,0.00058l-4.04866-4.04866c-0.20396-0.20396-0.20396-0.53542,0-0.73938     c0.20393-0.20393,0.53539-0.20393,0.73935,0.00003L15.48835,14.74899z"></path></g></g><path class="st1" d="M54.38023,65.22771c-3.22549,0-6.25903-1.25588-8.54133-3.53707   c-2.28053-2.28111-3.53641-5.31411-3.53641-8.54072c0-3.22549,1.25588-6.25845,3.53641-8.54075   c2.28288-2.28168,5.31642-3.53818,8.54133-3.53818c3.22495,0,6.25842,1.2565,8.54072,3.53818   c2.28168,2.2823,3.53764,5.31527,3.53764,8.54075c0,3.2266-1.25596,6.25961-3.53764,8.54072   C60.63984,63.97182,57.60626,65.22771,54.38023,65.22771z"></path><path class="st3" d="M48.95622,53.88958c-0.4082,0-0.74023-0.33203-0.74023-0.74023s0.33203-0.74023,0.74023-0.74023h10.84863   c0.4082,0,0.74023,0.33203,0.74023,0.74023s-0.33203,0.74023-0.74023,0.74023H48.95622z"></path><path class="st3" d="M54.37956,59.31341c-0.40723,0-0.73926-0.33203-0.73926-0.74023V47.72454   c0-0.40723,0.33203-0.73926,0.73926-0.73926c0.4082,0,0.74121,0.33203,0.74121,0.73926v10.84863   C55.12077,58.98138,54.78777,59.31341,54.37956,59.31341z"></path></g></svg>