<svg width="100%" height="100%" class="make-deposit" xmlns="http://www.w3.org/2000/svg" viewBox="0 0 65.33008 57.41291" xmlns:xlink="http://www.w3.org/1999/xlink"><style>
                .make-deposit .st0{fill:#004A98;}
                .make-deposit .st1{fill:#67E59E;}
                .make-deposit .st2{fill:#C6C6C6;}
                .make-deposit .st3{fill:#FFFFFF;}
            </style><g xmlns="http://www.w3.org/2000/svg"><path class="st0" d="M49.33724,47.34513c-2.76367,0-5.01172-2.24805-5.01172-5.01074V25.68595   c0-0.43359,0.35352-0.78711,0.78906-0.78711c0.43359,0,0.78711,0.35352,0.78711,0.78711v16.64844   c0,1.89453,1.54102,3.43555,3.43555,3.43555c1.89355,0,3.43457-1.54102,3.43457-3.43555V5.01114   c0-1.89355-1.54102-3.43457-3.43457-3.43457c-1.89453,0-3.43555,1.54102-3.43555,3.43457v1.87402   c0,0.43359-0.35352,0.78711-0.78711,0.78711c-0.43555,0-0.78906-0.35352-0.78906-0.78711V5.01114   c0-2.7627,2.24805-5.01074,5.01172-5.01074c2.7627,0,5.00977,2.24805,5.00977,5.01074v37.32324   C54.347,45.09708,52.09993,47.34513,49.33724,47.34513z"></path><path class="st1" d="M36.66328,1.97081c-7.68261,0-13.91058,6.22803-13.91058,13.91051c0,2.46686,0.64854,4.77949,1.77476,6.78831   c2.77193,0,9.36848,0,10.61444,0c1.5859,0,3.71798,0.79006,3.71798,2.76501c0,1.9752-1.57986,3.80209-1.57986,3.80209   s0.12018,0.11709,0.37608,0.50513c7.21739-0.51105,12.91775-6.51308,12.91775-13.86053   C50.57386,8.19884,44.34589,1.97081,36.66328,1.97081z"></path><g><path class="st1" d="M32.88953,53.96134c-0.37646,0-0.68262-0.30664-0.68262-0.68359s0.30615-0.68359,0.68262-0.68359h12.02979    c0.37695,0,0.68359,0.30664,0.68359,0.68359s-0.30664,0.68359-0.68359,0.68359H32.88953z"></path><path class="st1" d="M25.05994,57.37833c-0.37598,0-0.68213-0.30664-0.68213-0.68359s0.30615-0.68359,0.68213-0.68359h5.46094    c0.37695,0,0.68311,0.30664,0.68311,0.68359s-0.30615,0.68359-0.68311,0.68359H25.05994z"></path><path class="st1" d="M27.01453,50.56876c-0.37646,0-0.68262-0.30664-0.68262-0.68359s0.30615-0.68359,0.68262-0.68359h2.67529    c0.37695,0,0.68311,0.30664,0.68311,0.68359s-0.30615,0.68359-0.68311,0.68359H27.01453z"></path><path class="st1" d="M32.9784,50.56876c-0.37646,0-0.68262-0.30664-0.68262-0.68359s0.30615-0.68359,0.68262-0.68359h4.81787    c0.37695,0,0.68311,0.30664,0.68311,0.68359s-0.30615,0.68359-0.68311,0.68359H32.9784z"></path><path class="st1" d="M21.30017,57.41251c-0.39551,0-0.71729-0.32227-0.71729-0.71777s0.32178-0.71777,0.71729-0.71777    c0.396,0,0.71777,0.32227,0.71777,0.71777S21.69617,57.41251,21.30017,57.41251z"></path></g><path class="st2" d="M57.87749,19.80577c-0.37695,0-0.68359-0.30664-0.68359-0.68359s0.30664-0.68457,0.68359-0.68457h5.45996   c0.37695,0,0.68359,0.30762,0.68359,0.68457s-0.30664,0.68359-0.68359,0.68359H57.87749z"></path><path class="st2" d="M50.11333,15.38878c-0.37646,0-0.68262-0.30664-0.68262-0.68359s0.30615-0.68359,0.68262-0.68359h12.02979   c0.37695,0,0.68359,0.30664,0.68359,0.68359s-0.30664,0.68359-0.68359,0.68359H50.11333z"></path><path class="st2" d="M62.02886,11.9962c-0.37695,0-0.68359-0.30762-0.68359-0.68457s0.30664-0.68359,0.68359-0.68359h2.61816   c0.37695,0,0.68359,0.30664,0.68359,0.68359s-0.30664,0.68457-0.68359,0.68457H62.02886z"></path><path class="st3" d="M40.17376,15.2169c-0.63048-0.58225-1.54564-1.07692-2.71487-1.49275v-4.6094   c0.71842,0.17359,1.43649,0.72258,1.72209,0.83238c0.32166,0.1237,0.72638-0.01863,0.90441-0.22476   c0.14255-0.16513,0.50277-0.78264-0.25106-1.25853c-0.59357-0.45955-1.3937-0.75741-2.37544-0.91164V6.49206   c0-0.44206-0.36007-0.80156-0.8027-0.80156S35.85348,6.05,35.85348,6.49206V7.5178   c-1.31472,0.14563-3.60014,1.09426-3.60014,3.68442c0,2.54601,2.48638,3.61992,3.60014,3.99002v5.64904   c-0.73491-0.07468-1.51374-0.36609-2.34218-0.90333c-0.19494-0.10779-0.93917-0.34258-1.29157,0.25715   c-0.20398,0.34688-0.08149,0.94375,0.29234,1.20521c0.38874,0.26833,1.08982,0.5639,1.71822,0.75196   c0.53294,0.15653,1.02531,0.2874,1.62318,0.34402v0.9449c0,0.44264,0.36007,0.80271,0.80271,0.80271s0.8027-0.36007,0.8027-0.80271   v-1.0838c0.63113-0.14778,1.18693-0.41855,1.65759-0.72917c0.6112-0.38874,1.09398-0.88183,1.44946-1.47927   c0.36924-0.65707,0.60346-1.34367,0.63414-2.06295C41.2721,16.39745,40.5086,15.54601,40.17376,15.2169z M34.19589,11.1208   c0.01949-0.58368,0.21673-1.05613,0.59056-1.4185c0.31678-0.28267,0.67986-0.44579,1.06702-0.54756v3.94817   C34.76854,12.63104,34.19589,11.97769,34.19589,11.1208z M37.45889,20.63459v-4.84175   c0.81926,0.33857,1.79864,0.92526,1.79864,2.13147C39.25753,19.33249,38.46607,20.20428,37.45889,20.63459z"></path><path class="st0" d="M5.45356,48.30606c-1.46484-0.00098-2.83984-0.59766-3.87109-1.68066   c-1.02051-1.07227-1.58301-2.49414-1.58301-4.00293l0.00781-17.41113c0.00195-2.2002,1.23828-4.2207,3.14941-5.14844   l13.31933-6.46777c0.03712-0.01855,0.06837-0.03125,0.10157-0.04199c0.37207-0.12402,0.75684-0.1875,1.14648-0.1875   c0.5791,0,1.1377,0.1377,1.66016,0.4082c0.91895,0.47168,1.59473,1.29199,1.90332,2.30762   c0.56641,1.85938-0.29102,3.87891-1.99512,4.69922l-1.46191,0.63379l-1.9834,0.81348l0.02148,0.10938h20.18555   c2.0332,0,3.6875,1.71777,3.6875,3.82813v0.11719c0,0.9209-0.32129,1.81152-0.90527,2.50781l-0.41113,0.49219l0.41309,0.5625   c0.6123,0.72656,0.94531,1.69629,0.91211,2.66113c-0.07129,2.07031-1.71973,3.69141-3.75391,3.69141H23.83344l0.25488,1.0625   c0.11621,0.37891,0.1748,0.77051,0.1748,1.16406c0,1.0752-0.44336,2.10938-1.21582,2.83691l-0.46973,0.44043l0.34863,0.61035   c0.4248,0.6377,0.64941,1.38672,0.64941,2.16699c0,2.11035-1.65332,3.82813-3.68555,3.82813L5.45356,48.30606z M17.72212,14.9672   c-0.16992,0-0.34082,0.02246-0.50879,0.06641L3.85591,21.50138c-1.36621,0.66406-2.24805,2.12109-2.24805,3.71094L1.60005,42.61954   c0,1.09863,0.40527,2.12988,1.1416,2.90234c0.72559,0.7627,1.68945,1.18262,2.71289,1.18262l14.43555,0.00098   c1.14941,0,2.08496-0.99902,2.08496-2.22656s-0.93555-2.22656-2.08496-2.22656c-0.44141,0-0.7998-0.35938-0.7998-0.80078   s0.3584-0.7998,0.7998-0.7998h0.68555c1.14941,0,2.08496-0.99902,2.08496-2.22754c0-1.22754-0.93555-2.22656-2.08496-2.22656   h-0.29492c-0.44141,0-0.80078-0.3584-0.80078-0.7998c0-0.44238,0.35938-0.80176,0.80078-0.80176h15.71582   c1.14648,0,2.11328-0.96094,2.1543-2.14258c0.02246-0.64062-0.20313-1.23828-0.63477-1.68359   c-0.38965-0.4043-0.9043-0.62695-1.4502-0.62695H20.227c-0.44141,0-0.80078-0.3584-0.80078-0.7998   c0-0.45117,0.36621-0.83301,0.79883-0.83398H36.0522c1.15039,0,2.08691-0.99902,2.08691-2.22656v-0.11719   c0-1.22852-0.93555-2.22754-2.08496-2.22754h-24.6084c-0.38184,0-0.71191-0.27148-0.78613-0.64453   c-0.07422-0.37402,0.12793-0.75098,0.48047-0.89453l7.17285-2.94434c1.16308-0.39355,1.81348-1.69824,1.44629-2.90723   c-0.18555-0.60059-0.5791-1.08008-1.11035-1.35254C18.36372,15.0463,18.04243,14.9672,17.72212,14.9672z"></path></g></svg>