<svg width="100%" height="100%" class="get-reward" xmlns="http://www.w3.org/2000/svg" viewBox="0 0 68.7685 63.13039" xmlns:xlink="http://www.w3.org/1999/xlink"><style>
                .get-reward .st0{fill:#FCB813;}
                .get-reward .st1{fill:#E2E2E2;}
                .get-reward .st2{fill:#004A98;}
            </style><g xmlns="http://www.w3.org/2000/svg"><path class="st0" d="M46.50423,13.41307c-0.12371,0-0.24743-0.0345-0.35568-0.1023   c-4.3371-2.71456-9.38081-4.14916-14.58748-4.14916c-2.72526,0-5.41603,0.39255-7.99855,1.16695   c-0.22602,0.06543-0.4663,0.01309-0.64117-0.14513c-0.17367-0.15583-0.25337-0.39255-0.20936-0.62214l1.4001-7.37879   c0.03806-0.20579,0.1713-0.38066,0.35806-0.47463c0.18676-0.0916,0.40802-0.09397,0.59478-0.00238l4.73918,2.32201L34.65272,0.146   c0.2617-0.20817,0.64236-0.19271,0.88384,0.04163l4.26454,4.11585l7.788-2.28989c0.2165-0.06543,0.45203-0.01427,0.62333,0.13204   c0.17249,0.14631,0.25932,0.36995,0.23077,0.59478l-1.27401,10.0874c-0.02855,0.22602-0.1713,0.42229-0.37828,0.52102   C46.7005,13.39166,46.60177,13.41307,46.50423,13.41307z"></path><path class="st0" d="M6.65962,19.16515c-0.09473,0-0.19043-0.01465-0.28516-0.04199l-2.54199-0.74902L1.2895,19.12316   c-0.09277,0.02734-0.1875,0.04199-0.2832,0.04199c-0.26758,0-0.51855-0.10449-0.70898-0.29395   c-0.26172-0.26074-0.35938-0.64355-0.25684-0.99902l0.74512-2.56152l-0.74512-2.56348   c-0.10254-0.35449-0.00488-0.7373,0.25684-0.99902c0.18945-0.18848,0.44141-0.29297,0.70801-0.29297   c0.0957,0,0.19141,0.01367,0.2832,0.04102l2.54395,0.75l2.54297-0.74902c0.09277-0.02832,0.18848-0.04199,0.28418-0.04199   c0.2666,0,0.51855,0.10449,0.70898,0.29395c0.26074,0.26074,0.35938,0.64355,0.25586,0.99805l-0.74512,2.56348l0.74512,2.5625   c0.10352,0.35449,0.00488,0.7373-0.25684,0.99902C7.17818,19.06066,6.92622,19.16515,6.65962,19.16515z M3.83247,17.37218   c0.0957,0,0.19141,0.01465,0.28418,0.04199l2.5498,0.75195l-0.74805-2.57324c-0.05371-0.18457-0.05371-0.38086,0-0.56641   l0.74805-2.57227l-2.5498,0.75195c-0.09277,0.02734-0.18848,0.04199-0.28418,0.04199s-0.19043-0.01465-0.28223-0.04102   l-2.55176-0.75293l0.74805,2.57422c0.05469,0.18457,0.05469,0.37891,0,0.56348l-0.74805,2.57422l2.55078-0.75195   C3.64204,17.38683,3.73677,17.37218,3.83247,17.37218z"></path><path class="st0" d="M62.10845,28.69999c-0.2666,0-0.51855-0.10449-0.70801-0.29297c-0.26172-0.26172-0.35938-0.64453-0.25684-1   l0.74512-2.56152l-0.74512-2.56348c-0.10352-0.35449-0.00488-0.7373,0.25684-0.99902   c0.18945-0.18848,0.44141-0.29199,0.70898-0.29199c0.0957,0,0.19141,0.01367,0.2832,0.04102l2.54296,0.75l2.54297-0.75   c0.09277-0.02832,0.18848-0.04199,0.28418-0.04199c0.2666,0,0.51855,0.10449,0.70898,0.29395   c0.26074,0.26074,0.35938,0.64355,0.25586,0.99805l-0.74512,2.56348l0.74512,2.5625   c0.10352,0.35449,0.00488,0.7373-0.25684,0.99902c-0.18945,0.18848-0.44141,0.29297-0.70801,0.29297   c-0.09668,0-0.19238-0.01367-0.28223-0.04102l-2.54492-0.75l-2.54296,0.74902   C62.29985,28.68631,62.20415,28.69999,62.10845,28.69999z M64.93559,26.90702c0.0957,0,0.19141,0.01465,0.28418,0.04199   l2.5498,0.75195l-0.74805-2.57324c-0.05371-0.18457-0.05371-0.38086,0-0.56641l0.74902-2.57129l-2.55078,0.75195   c-0.0918,0.02734-0.1875,0.04102-0.28418,0.04102c-0.0957,0-0.19141-0.01367-0.28418-0.04102l-2.5498-0.75195l0.74805,2.57324   c0.05469,0.18457,0.05469,0.37988,0,0.56348l-0.74805,2.57422l2.55078-0.75195   C64.74516,26.92167,64.83989,26.90702,64.93559,26.90702z"></path><path class="st1" d="M13.31256,8.49454c-0.19263,0-0.37269-0.07538-0.5067-0.21078l-1.19346-1.20183l-1.19485,1.20183   c-0.134,0.1354-0.31407,0.21078-0.5067,0.21078c-0.19123,0-0.3713-0.07398-0.5053-0.20798   c-0.27917-0.27778-0.28057-0.73143-0.00279-1.012l1.20044-1.20881L9.40276,4.85694c-0.1354-0.1354-0.20939-0.31546-0.20798-0.5067   c0-0.19123,0.07538-0.3713,0.21077-0.5053c0.1354-0.134,0.31407-0.20798,0.50391-0.20798   c0.19263,0,0.37269,0.07538,0.50809,0.21217l1.19346,1.20183l1.19485-1.20183c0.1354-0.13679,0.31546-0.21217,0.50809-0.21217   c0.18984,0,0.36851,0.07398,0.50251,0.20798c0.13679,0.1354,0.21217,0.31407,0.21217,0.5053s-0.07258,0.3713-0.20798,0.5067   l-1.20044,1.20881l1.20044,1.20881c0.27778,0.28057,0.27638,0.73422-0.00279,1.012   C13.68386,8.42056,13.50379,8.49454,13.31256,8.49454z"></path><path class="st1" d="M60.00721,36.22421c-0.1537,0-0.29626-0.06014-0.40319-0.16818l-0.95451-0.96008l-0.95228,0.95897   c-0.10804,0.10915-0.25172,0.16929-0.40541,0.16929c-0.15148,0-0.29515-0.05903-0.40319-0.16706   c-0.22164-0.22053-0.22276-0.58251-0.00111-0.80638l0.95785-0.96453l-0.95785-0.96453   c-0.10804-0.10804-0.16707-0.25171-0.16595-0.4043c0-0.15259,0.06015-0.29627,0.16818-0.40319s0.2506-0.16595,0.40208-0.16595   c0.1537,0,0.29738,0.06014,0.40541,0.16929l0.95228,0.95897l0.95228-0.95897c0.10804-0.10915,0.25172-0.16929,0.40541-0.16929   c0.15148,0,0.29515,0.05903,0.40208,0.16595c0.10915,0.10804,0.1693,0.2506,0.1693,0.40319s-0.05792,0.29626-0.16595,0.4043   l-0.95897,0.96453l0.95897,0.96453c0.10804,0.10804,0.16595,0.25171,0.16595,0.4043s-0.06015,0.29515-0.1693,0.40319   C60.30237,36.16518,60.15869,36.22421,60.00721,36.22421z"></path><path class="st2" d="M16.77625,63.13021c-0.88379,0-1.73438-0.36914-2.33496-1.01367L4.11316,51.0433   c-0.58105-0.62207-0.88379-1.43457-0.85352-2.28809c0.0293-0.85254,0.38867-1.6416,1.01172-2.22168   c0.5918-0.55371,1.36328-0.8584,2.17383-0.8584l0.11328,0.00195c0.67676,0.02344,1.31445,0.25391,1.8418,0.66504l0.16992,0.13281   l0.11816-0.17969c1.68945-2.57324,3.7666-4.25684,6.34961-5.14746l0.11816-0.03809   c0.35254-0.11719,0.70898-0.22266,1.07617-0.30957c0.59863-0.14355,1.32324-0.25391,2.1543-0.3291   c0.49902-0.04102,0.99707-0.05859,1.49121-0.05859c1.90625,0,3.74805,0.2666,5.37402,0.50098   c1.37891,0.2002,2.56934,0.37305,3.5752,0.37305c0.21289,0,0.41699-0.00781,0.61035-0.02539   c0.51855-0.0459,2.40723-0.24707,4.23438-0.44238c1.91699-0.20508,3.72949-0.39746,4.26465-0.44531   c0.08496-0.00684,0.16895-0.01074,0.25195-0.01074c1.31152,0,2.46777,0.92773,2.74805,2.20605l0.04297,0.19629l7.44922-1.73242   l2.45898-0.54004c0.14551-0.01563,0.30566-0.02441,0.46094-0.02441c1.73145,0,2.65918,1.11523,2.92578,2.07129   c0.3584,1.27637-0.20801,2.8916-1.98145,3.50879c-0.74512,0.25098-2.68945,1.01758-4.94043,1.9043   c-3.09277,1.21973-7.21387,2.84473-10.43848,4.00977c-3.21973,1.16211-4.74707,1.54883-7.44238,1.54883l0,0   c-0.66797,0-1.40723-0.02344-2.26367-0.0625l-5.92286-0.27148l-2.6582,4.06836l0.48145,0.51758   c0.58301,0.62402,0.88672,1.43652,0.85645,2.28809c-0.0293,0.85254-0.38867,1.6416-1.0127,2.22266   C18.36023,62.8265,17.58777,63.13021,16.77625,63.13021z M6.44715,47.29037c-0.39941,0-0.78125,0.15039-1.07422,0.42383   c-0.30762,0.28711-0.48535,0.67676-0.5,1.09766c-0.01465,0.42188,0.13574,0.82324,0.42188,1.13086l10.32715,11.07324   c0.29688,0.31738,0.71777,0.5,1.15332,0.5c0.40039,0,0.78223-0.15039,1.0752-0.42285c0.30762-0.28711,0.48535-0.67676,0.5-1.09766   s-0.13574-0.82227-0.42188-1.12988L7.60047,47.79134c-0.28809-0.30762-0.67773-0.48535-1.09766-0.5L6.44715,47.29037z    M19.89246,42.02572c-4.54785,0-7.75586,1.75977-10.0957,5.53809l-0.0791,0.12891l7.77344,8.33594l2.69336-4.12207   c0.15039-0.22852,0.40234-0.36523,0.67578-0.36523l6.42285,0.29395c0.8457,0.03906,1.5625,0.0625,2.20313,0.0625   c2.45703,0,3.80664-0.3457,6.87988-1.45508c3.10059-1.11914,7-2.65527,10.13379-3.88965l0.17676-0.07031   c2.19824-0.86719,4.27441-1.68652,5.08789-1.96191c0.86914-0.30371,1.10352-1.01465,0.95508-1.5459   c-0.15723-0.55859-0.66895-0.89258-1.37012-0.89258c-0.18262,0-0.37988,0.02246-0.58691,0.06641l-10.18262,2.36719   l-0.04297,0.06055c-0.38477,0.52832-1.01074,0.97656-1.86035,1.33105c-2.78613,1.16113-5.75391,2.1377-8.14453,2.67773   c-0.05957,0.01367-0.12012,0.02051-0.17969,0.02051c-0.37988,0-0.70215-0.25977-0.78613-0.63086   c-0.04785-0.20996-0.01074-0.42578,0.10449-0.6084s0.29395-0.30957,0.50488-0.35742   c2.30469-0.52051,5.17676-1.46582,7.87891-2.59277c1.25586-0.52344,1.3584-1.02246,1.32617-1.35352   c-0.05469-0.61816-0.56934-1.08496-1.19531-1.08496l-0.10547,0.00488c-0.51172,0.04492-2.35645,0.24219-4.16016,0.43555   l-0.45508,0.04785c-1.77246,0.18848-3.38477,0.36035-3.88379,0.40527c-0.2373,0.02051-0.4834,0.03027-0.73828,0.03027   c-1.13965,0-2.44238-0.18848-3.82227-0.38867C23.36707,42.27377,21.65711,42.02572,19.89246,42.02572z"></path><path class="st2" d="M50.86023,16.85119l-3.49707-0.04199l-1.86719-3.23535c-0.33398-0.57715-0.87305-0.99023-1.52051-1.16309   c-0.21387-0.05762-0.43457-0.08691-0.6543-0.08691c-0.43359,0-0.8623,0.11523-1.24023,0.33398l-7.28516,4.19336l-2.4043-0.01172   l-7.24121-4.18164c-0.37891-0.21875-0.80859-0.33398-1.24219-0.33398c-0.21973,0-0.44043,0.0293-0.65527,0.08691   c-0.64648,0.17285-1.18555,0.58594-1.51855,1.16309l-1.94141,3.27734h-3.42383c-0.95313,0-1.72949,0.77539-1.72949,1.72852v3.92285   c0,0.92969,0.72852,1.6875,1.6582,1.72559l0.27148,0.01074v17.39981c0.56055-0.12207,0.92871-0.16406,1.38672-0.21484   l0.05859-0.00781V24.23205h11.2998v3.10854c0,0.22852,0.10938,0.44531,0.29395,0.58008   c0.12207,0.0918,0.27539,0.1416,0.42969,0.1416c0.07227,0,0.14355-0.01074,0.21191-0.03125l3.39063-1.02832l3.33887,1.02832   c0.07129,0.02148,0.14258,0.03223,0.21289,0.03223c0.15625,0,0.30371-0.04883,0.42871-0.14258   c0.18457-0.13574,0.29492-0.35254,0.29492-0.58008v-3.10854h11.29883v17.53848l1.44629-0.31152V24.23888l0.27148-0.01074   c0.92969-0.03809,1.6582-0.7959,1.6582-1.72559V18.5797C52.5907,17.62658,51.81433,16.85119,50.86023,16.85119z M29.31433,22.78576   H16.08582V18.2965h13.22852V22.78576z M21.5116,16.85119l1.47461-2.55371c0.13965-0.24316,0.36719-0.41699,0.6416-0.49023   c0.0918-0.02441,0.18457-0.03711,0.27637-0.03711c0.18164,0,0.36328,0.04883,0.52344,0.14063l5.0918,2.94043H21.5116z    M36.46961,22.21215v0.57361v1.44629v0.48535v1.64369l-2.6416-0.81348c-0.07129-0.02148-0.14258-0.03223-0.21387-0.03223   c-0.07031,0-0.1416,0.01074-0.21191,0.03223l-2.6416,0.81348V24.7174v-0.48535v-1.44629v-0.57361V18.2965h5.70898V22.21215z    M37.70984,16.85021l5.09277-2.94043c0.15918-0.09082,0.34082-0.13965,0.52246-0.13965c0.09277,0,0.18555,0.0127,0.27734,0.03711   c0.27344,0.07324,0.50098,0.24707,0.64063,0.48828l1.47559,2.55469H37.70984z M51.14344,22.78576H37.9159V18.2965h13.22754   V22.78576z"></path><g><path class="st0" d="M29.3838,30.26758c0.10719-0.30366,0.30366-0.45642,0.58884-0.45642    c0.17739,0,0.32769,0.0579,0.45087,0.17247c0.12318,0.11457,0.18477,0.26055,0.18477,0.43608    c0,0.09978-0.01908,0.19956-0.05727,0.29874l-2.58324,7.00319c-0.07637,0.21435-0.15891,0.36156-0.24698,0.44226    c-0.08809,0.08007-0.20821,0.12009-0.36157,0.12009c-0.19155,0-0.3292-0.03447-0.41299-0.10347    c-0.08436-0.06837-0.16875-0.22173-0.25251-0.45888l-2.58324-7.00319c-0.0462-0.09177-0.06899-0.19095-0.06899-0.29874    c0-0.17553,0.06098-0.32151,0.18293-0.43608c0.12195-0.11457,0.27102-0.17247,0.44655-0.17247    c0.29011,0,0.48474,0.15399,0.58392,0.46074l2.07601,5.89328L29.3838,30.26758z"></path><path class="st0" d="M33.53455,38.28399c-0.17001,0-0.31659-0.05727-0.44039-0.17184    c-0.12319-0.11457-0.18478-0.26361-0.18478-0.44718v-7.22309c0-0.17553,0.06159-0.3246,0.18478-0.44715    c0.1238-0.12195,0.2747-0.18357,0.45209-0.18357c0.178,0,0.3246,0.06162,0.4404,0.18357    c0.1158,0.12255,0.1737,0.27162,0.1737,0.44715v7.22309c0,0.17616-0.05976,0.32337-0.17925,0.44163    C33.86098,38.22486,33.71254,38.28399,33.53455,38.28399z"></path><path class="st0" d="M38.2583,37.66438c0,0.16815-0.05791,0.3135-0.17371,0.43608    c-0.11579,0.12258-0.26301,0.18354-0.4404,0.18354c-0.17799,0-0.32829-0.06096-0.4521-0.18354    c-0.12378-0.12258-0.1854-0.27162-0.1854-0.44778v-7.09499c0-0.19893,0.06345-0.35784,0.18972-0.4761    c0.12627-0.11889,0.29998-0.17802,0.52233-0.17802h2.00916c0.79581,0,1.45362,0.24885,1.97472,0.74589    c0.52047,0.4977,0.78039,1.13271,0.78039,1.90572c0,0.77361-0.25194,1.40496-0.75575,1.89462    c-0.50386,0.48969-1.15242,0.73482-1.94637,0.73482H38.2583V37.66438z M38.2583,34.08208h1.42895    c0.43056,0,0.79518-0.14535,1.09515-0.43608c0.29934-0.29073,0.44964-0.65043,0.44964-1.07913    c0-0.42069-0.1503-0.78471-0.44964-1.09083c-0.29997-0.30612-0.66459-0.45948-1.09515-0.45948H38.2583V34.08208z"></path></g></g></svg>