<svg width="100%" height="100%" class="start-win" xmlns="http://www.w3.org/2000/svg" viewBox="0 0 76.21228 64.21323" xmlns:xlink="http://www.w3.org/1999/xlink"><style>
                .start-win .st0{fill:#F7921A;}
                .start-win .st1{fill:#004A98;}
                .start-win .st2{fill-rule:evenodd;clip-rule:evenodd;fill:#E2E2E2;}
                .start-win .st3{fill:#E2E2E2;}
                .start-win .st4{fill:#FFFFFF;}
            </style><g xmlns="http://www.w3.org/2000/svg"><path class="st0" d="M7.22014,54.55411c-1.86295,0.8626-3.73508,0.55657-4.15554-0.29527   c-0.2102-0.42586-0.1445-1.25208,0.32655-1.48458c0.57731-0.28495,1.5219,0.4774,2.93538-0.03059L4.83236,49.7165   c-1.63937,0.1657-3.49937,0.34542-4.46014-1.60108c-0.95327-1.93131,0.06414-3.47381,1.48745-4.42154l-0.2102-0.42587   c-0.09788-0.1983,0.03939-0.49369,0.32919-0.63673c0.25814-0.12741,0.60776-0.07235,0.70564,0.12596l0.19457,0.3942   c1.00357-0.4574,2.7582-0.96448,3.19428-0.08098c0.17198,0.34843,0.27426,1.16913-0.28833,1.44682   c-0.42592,0.21023-1.01591-0.10415-2.07256,0.32259l1.32157,2.67748c1.60186-0.16616,3.45954-0.23238,4.48057,1.8362   c0.92371,1.87141,0.2861,3.52858-1.28202,4.644l0.23279,0.47164c0.09732,0.19716-0.07161,0.50818-0.32975,0.63559   c-0.28865,0.14248-0.60776,0.07235-0.70508-0.12482L7.22014,54.55411z M3.95594,47.63348l-1.13394-2.29734   c-0.70067,0.49758-0.97637,1.08752-0.69085,1.66597C2.46124,47.67085,3.12171,47.70531,3.95594,47.63348 M5.92531,49.63089   l1.30651,2.64697c0.6016-0.46765,0.87812-1.09587,0.52541-1.81045C7.3889,49.72117,6.72243,49.59784,5.92531,49.63089"></path><path class="st0" d="M69.07145,45.15459c-1.04214-0.95798-1.34261-2.231-0.91145-2.72409   c0.21555-0.24651,0.759-0.42328,1.03168-0.18486c0.33418,0.2922,0.09868,1.09535,0.7961,1.86096l1.53218-1.75231   c-0.53925-1-1.1458-2.13678-0.16059-3.26353c0.97752-1.11796,2.22887-0.87825,3.20889-0.22273l0.21555-0.24651   c0.10037-0.11479,0.32478-0.10554,0.49252,0.04114c0.14943,0.13065,0.20686,0.36784,0.1065,0.48263l-0.19952,0.22819   c0.55676,0.51799,1.34387,1.50106,0.8967,2.01249c-0.17635,0.20169-0.67187,0.48395-0.99753,0.1992   c-0.24654-0.21558-0.20246-0.67442-0.75375-1.23432l-1.35519,1.54989c0.52962,0.97599,1.06328,2.14132,0.01629,3.33874   c-0.9472,1.08329-2.17107,1.11575-3.29619,0.41239l-0.23872,0.27301c-0.09979,0.11413-0.34252,0.08885-0.49195-0.0418   c-0.16709-0.1461-0.20686-0.36784-0.10707-0.48197L69.07145,45.15459z M72.61442,41.24512l1.16277-1.32984   c-0.5022-0.31449-0.95078-0.33395-1.24355,0.00089C72.19516,40.30328,72.34795,40.73295,72.61442,41.24512 M71.86365,43.02756   l-1.33974,1.53222c0.45694,0.25933,0.93011,0.26918,1.29179-0.14446C72.19339,43.98336,72.09559,43.52637,71.86365,43.02756"></path><path class="st0" d="M50.71686,38.6326c0.50074-3.34331-2.0451-5.14076-5.52646-6.34003l1.12954-4.52884l-2.75668-0.68707   l-1.09962,4.40956c-0.72468-0.18052-1.46923-0.35076-2.20765-0.5195l1.10646-4.43909l-2.7551-0.68707l-1.12954,4.52766   c-0.60046-0.13686-1.18937-0.27184-1.76062-0.41365l0.00307-0.01421l-3.80189-0.94933l-0.73387,2.94458   c0,0,2.04589,0.46854,2.00216,0.49767c1.11729,0.27875,1.31894,1.01757,1.28525,1.60342c0,0-1.19016,5.20358-1.29137,5.17947   l-1.80279,7.22803c-0.13647,0.3389-0.48307,0.84733-1.26295,0.6548c0.02686,0.03989-2.00443-0.50074-2.00443-0.50074   l-1.3688,3.15706l3.58799,0.89483c0.66712,0.16718,1.32121,0.34197,1.96533,0.50687l-1.141,4.58098l2.75361,0.68707   l1.12954-4.53339c0.75224,0.2047,1.48226,0.39261,2.19689,0.57125l-1.12569,4.51039l2.75675,0.68707l1.14101-4.57171   c4.70057,0.8895,8.23642,0.53057,9.72401-3.72061c1.19927-3.42309-0.05983-5.3984-2.53281-6.68663   C48.99849,42.26503,50.35495,41.08028,50.71686,38.6326z M44.41821,47.46484c-0.85189,3.42302-6.61604,1.57351-8.48557,1.10881   l1.51445-6.06897C39.31585,42.97125,45.3085,43.8953,44.41821,47.46484z M45.27096,38.58313   c-0.77752,3.11442-5.57554,1.53212-7.13137,1.14415l1.37257-5.50463C41.06799,34.61061,46.08068,35.33451,45.27096,38.58313z"></path><path class="st1" d="M39.76117,64.21336c-12.38672,0-22.46484-10.07715-22.46484-22.46289s10.07813-22.46289,22.46484-22.46289   s22.46387,10.07715,22.46387,22.46289S52.14789,64.21336,39.76117,64.21336z M39.76117,20.84617   c-11.52637,0-20.9043,9.37793-20.9043,20.9043s9.37793,20.9043,20.9043,20.9043c11.52734,0,20.90527-9.37793,20.90527-20.9043   S51.28852,20.84617,39.76117,20.84617z"></path><g><path class="st2" d="M66.41854,18.17694l2.38947-0.81696l-0.81696-2.38947l-2.38947,0.81696L66.41854,18.17694z M72.02975,20.9288    l2.38947-0.81696l-0.81696-2.38947l-2.38947,0.81696L72.02975,20.9288z M60.80733,15.42508l2.38954-0.81693l-0.81704-2.3895    l-2.38947,0.81696L60.80733,15.42508z"></path><path class="st2" d="M63.25806,22.59321l0.40862,1.19494l6.57106-2.24666l-0.81704-2.3895l-4.18152,1.42973l-1.42962-4.18156    l-2.38954,0.81693L63.25806,22.59321z M71.15118,10.55416L70.74291,9.3593l-6.57106,2.24666l0.81704,2.3895l4.18148-1.42966    l1.42965,4.18148l2.38954-0.81692L71.15118,10.55416z"></path></g><g><path class="st3" d="M11.57048,22.43743c-2.99594,0-5.8136-1.16651-7.93347-3.28535    c-2.11823-2.11877-3.28474-4.93592-3.28474-7.9329c0-2.99594,1.1665-5.81306,3.28474-7.93294    c2.12041-2.1193,4.93807-3.28638,7.93347-3.28638c2.99544,0,5.81303,1.16708,7.9329,3.28638    c2.1193,2.11987,3.28588,4.937,3.28588,7.93294c0,2.99698-1.16657,5.81413-3.28588,7.9329    C17.38461,21.27092,14.56692,22.43743,11.57048,22.43743z"></path><g><polygon class="st4" points="16.29523,8.71279 8.37057,2.10425 5.81285,12.19303 10.26891,8.08812    "></polygon><polygon class="st4" points="6.55069,14.41538 14.5994,20.33304 17.32867,10.83699 12.98349,15.77009    "></polygon><polygon class="st4" points="7.15176,13.1026 10.95786,9.67743 15.85157,10.15067 12.43594,14.1467    "></polygon></g></g></g></svg>