<svg width="100%" height="100%" class="ios" xmlns="http://www.w3.org/2000/svg" viewBox="0 0 30 36.71" xmlns:xlink="http://www.w3.org/1999/xlink"><style></style><path fill="" d="M1.55 13.49C-1.56 18.88.42 27.05 3.85 32c1.71 2.48 3.45 4.7 5.82 4.7h.14a7.36 7.36 0 0 0 2.7-.72 7.31 7.31 0 0 1 3.2-.76 7 7 0 0 1 3.05.73 6.32 6.32 0 0 0 2.92.7c2.67 0 4.32-2.45 5.77-4.56A20 20 0 0 0 30 26.92a.3.3 0 0 0-.16-.37 7.69 7.69 0 0 1-4.65-7 7.9 7.9 0 0 1 3.74-6.6.3.3 0 0 0 .14-.19.32.32 0 0 0-.05-.23 8.7 8.7 0 0 0-6.83-3.71 5.74 5.74 0 0 0-.6 0 12 12 0 0 0-4.28 1.07 7 7 0 0 1-2 .62 6.82 6.82 0 0 1-2.13-.62 10.16 10.16 0 0 0-3.74-.95h-.1a9.17 9.17 0 0 0-7.72 4.67zM22.17 0a8.42 8.42 0 0 0-5.53 2.84 7.82 7.82 0 0 0-2 5.82.31.31 0 0 0 .28.26h.39a7.11 7.11 0 0 0 5.22-2.68 8.24 8.24 0 0 0 1.94-6 .29.29 0 0 0-.3-.24z"></path></svg>