<svg class="PT2" width="100%" height="100%" viewBox="0 0 90 90" xmlns="http://www.w3.org/2000/svg" xmlns:xlink="http://www.w3.org/1999/xlink"><style>
	 .PT2 .st0{fill:#353C7A;}
</style><g fill=""><g><path class="st0" d="M82.99166,27.13025c-2.33136-3.10848-5.90608-4.97344-9.63616-6.06144 c-5.28432-1.39872-10.87952-1.39872-16.3192-0.93248c-4.97344,0.62176-9.79152,1.7096-14.6096,3.26384 c-2.64224-1.7096-5.43968-3.26384-8.08192-4.81808c-1.55424-1.088-3.8856-0.93248-5.12896,0.31088 c-0.77712,0.77712-1.088,1.86512-1.088,2.95296c0,2.64224,0,5.28432,0,7.92656c-3.10847,1.86496-6.06143,3.73008-8.85903,5.90592 c-4.81808,3.8856-9.32528,8.3928-12.12288,13.988c-1.7096,3.57472-2.7976,7.61568-1.7096,11.65664 c0.93248,3.73008,3.8856,6.52768,7.3048,8.08192c5.43968,2.64224,11.65664,2.95296,17.71808,2.64224 c6.37232-0.46624,12.74464-2.02048,18.80608-4.19632c9.16992-3.4192,17.87344-8.23728,25.02288-14.76511 c4.35184-4.19632,8.54816-9.16992,10.10239-15.07584C85.47838,34.43505,85.1675,30.23873,82.99166,27.13025z M34.96638,24.48817 c1.088-0.15536,1.86512,0.62176,2.64224,1.088c6.37232,3.8856,12.74464,7.77104,19.27232,11.50112 c0.77712,0.46624,1.55424,1.24336,1.39872,2.17584c0.15536,1.088-0.77711,2.02048-1.7096,2.33136 c-6.6832,3.8856-13.36624,7.77104-20.2048,11.65664c-1.24336,0.93248-2.7976,0.15536-3.73008-0.93248 c-0.15536-0.93248-0.31088-1.86512-0.15536-2.64224c-0.15536-7.3048,0-14.76512-0.15536-22.06992 C32.32415,26.04241,33.41214,24.48817,34.96638,24.48817z M47.5555,64.43153c-5.75056,2.7976-11.812,4.81808-18.02896,5.28432 c-2.17584,0.31088-4.35184,0-6.52768-0.31088c-2.64224-0.62176-5.28432-1.70959-6.83856-3.8856 c-2.17584-2.7976-2.33136-6.83855-1.088-10.1024c0.15536,2.48672,1.088,4.81808,2.7976,6.52768 c3.10848,2.95296,7.61568,3.88559,11.96752,4.19632c7.3048,0.31088,14.6096-1.39872,21.44816-4.04096 c0.46624-0.15536,0.93248-0.31088,1.39872-0.46624C50.9747,62.72177,49.2651,63.65441,47.5555,64.43153z M69.93613,38.16529 c-1.088,4.81808-4.19632,8.85904-7.61568,12.43376C56.5699,56.34961,49.2651,60.54609,41.4939,62.87729 c-3.73008,1.088-7.61568,1.7096-11.34576,1.39872c-2.48672-0.31088-4.97344-1.24336-6.52768-3.26384 c-1.55424-2.02048-1.7096-4.81808-1.088-7.3048c0.93248-3.57472,3.10848-6.83856,5.5952-9.63616c0,4.04096,0,7.92656,0,11.96752 c0,1.24336,0.15536,2.48672,0.93248,3.4192c1.088,0.93248,2.64224,1.39872,4.04096,0.93248 c0.77712-0.31088,1.55424-0.77712,2.33136-1.24336c9.0144-5.28432,18.02896-10.56864,27.19872-15.6976 c1.088-0.62176,2.48671-1.24336,2.95296-2.64224c0.77711-1.55424,0-3.57472-1.55424-4.35184 c-4.04096-2.33136-8.23728-4.5072-12.27824-6.83856c2.95296-1.088,6.06144-1.39872,9.32528-1.24336 c2.7976,0.15536,5.90608,1.088,7.61568,3.4192C70.09166,33.65809,70.24702,35.98929,69.93613,38.16529z M76.30846,33.19169 c-0.77711-1.39872-1.7096-2.7976-3.10847-3.8856c-3.57472-2.7976-8.23728-3.4192-12.58912-3.57472 c-3.73008,0-7.3048,0.46624-10.87952,1.39872c-1.088,0.31088-1.86512-0.62176-2.7976-1.088 c4.19632-1.86512,8.54816-2.95296,13.05536-3.57472c3.8856-0.31088,8.3928-0.31088,11.96751,1.86512 C74.90974,26.19777,76.61934,29.77249,76.30846,33.19169z"></path></g></g></svg>